<svg xmlns="http://www.w3.org/2000/svg" width="865.76" height="682.89" viewBox="0 0 865.76 682.89"><path d="M619.34,107.62A342.49,342.49,0,0,0,402.25,30.45c-189.93,0-343.89,154-343.89,343.89a345.89,345.89,0,0,0,6.79,68.36Z" fill="#3db2ff"/><path d="M641.62,95,80,452A343.83,343.83,0,0,0,162.3,588L751,365.1q.46-9,.47-18.15A343,343,0,0,0,641.62,95Z" fill="#3db2ff"/><path d="M237.22,563.6a342.63,342.63,0,0,0,230.67,88.84c171.2,0,313.18-125.1,339.51-288.88C679.87,408,352.88,522.2,237.22,563.6Z" fill="#3db2ff"/><g opacity="0.8" style="isolation:isolate"><path d="M619.34,107.62A342.49,342.49,0,0,0,402.25,30.45c-189.93,0-343.89,154-343.89,343.89a345.89,345.89,0,0,0,6.79,68.36Z" fill="#fff"/><path d="M641.62,95,80,452A343.83,343.83,0,0,0,162.3,588L751,365.1q.46-9,.47-18.15A343,343,0,0,0,641.62,95Z" fill="#fff"/><path d="M237.22,563.6a342.63,342.63,0,0,0,230.67,88.84c171.2,0,313.18-125.1,339.51-288.88C679.87,408,352.88,522.2,237.22,563.6Z" fill="#fff"/></g><g opacity="0.4"><path d="M226,250h0a113,113,0,0,1-19.83-2.52.17.17,0,0,1-.14-.21.18.18,0,0,1,.22-.14A113.3,113.3,0,0,0,226,249.68a.18.18,0,0,1,0,.35Z" fill="#fff"/></g><polygon points="297.96 263.49 322.85 376.87 460.79 377.5 436.23 264.12 297.96 263.49" fill="#3db2ff"/><polygon points="297.96 263.49 454.45 349.25 436.23 264.12 297.96 263.49" fill="#fff" opacity="0.2"/><polygon points="297.96 263.49 304.89 257.5 441.27 257.82 466.15 374.67 460.79 377.5 436.23 264.12 297.96 263.49" fill="#1e3163"/><path d="M436.54,570.25l4.1,12.6s8.82,2.2,18.89-5.36l-3.15-12.28Z" fill="#f1c4b3"/><path d="M472.76,604.58S455.44,621,442.84,627.89l-.69.41c-3,1.7-15.25,7.86-27,2.11,0,0-4.41-2.52-1.58-6.62l9.76-9.44,18-17.41a1.43,1.43,0,0,0,.4-1.32l-2.35-10.88s-1.22-2.84.81-3.31l.45,1.42s8.82,2.2,18.89-5.36l-.24-1.19s3.08-2.9,5,7.49c0,0,1.57,8.19,4.41,12.92Z" fill="#3db2ff"/><path d="M442.15,628.3c-3,1.7-15.25,7.86-27,2.11,0,0-4.41-2.52-1.58-6.62l9.76-9.44C429.36,614.12,440.5,614.52,442.15,628.3Z" fill="#fff" opacity="0.2"/><path d="M474.55,612.3l-20.42,16.58a42.1,42.1,0,0,1-28.85,9.44,40.34,40.34,0,0,1-8.2-1.3,10.38,10.38,0,0,1-4.5-2.55c-5.25-5.2,1-10.68,1-10.68-2.83,4.1,1.58,6.62,1.58,6.62,11.77,5.75,24-.41,27-2.11l.69-.41c12.6-6.93,29.92-23.31,29.92-23.31l2.4,5A2.23,2.23,0,0,1,474.55,612.3Z" fill="#e6e6e6"/><path d="M423.31,614.35l2-1.93s10.89,0,18.45,8.54c0,0,2.2,2.83,8.5-2.21l19.44-16.39,1,2.22s-21.53,19.72-30.61,23.72C442.15,628.3,441.9,612.79,423.31,614.35Z" opacity="0.2"/><path d="M527.56,511.67h17a0,0,0,0,1,0,0v95.9a8.5,8.5,0,0,1-8.5,8.5h0a8.5,8.5,0,0,1-8.5-8.5v-95.9a0,0,0,0,1,0,0Z" fill="#747bff"/><polygon points="527.56 511.67 527.56 533.84 544.69 540.54 544.69 511.67 527.56 511.67" fill="#9da2fe"/><path d="M562.21,516.71l-93.56-1.49a5.35,5.35,0,0,1-5.27-5.42l.17-13.36a5.36,5.36,0,0,1,5.92-5.25L561.58,501Z" fill="#ffe18e"/><path d="M633.07,360.49s-6-9.45-31.49-11.34L546.15,465.37l71.8,3.47,3.78-.32,12-71.49S636.22,366.79,633.07,360.49Z" fill="#ffc931"/><path d="M618,468.84l-71.8-3.47-76.68,25.82L561.58,501S592.44,489.31,618,468.84Z" fill="#ffc931"/><path d="M561.58,501A236.36,236.36,0,0,0,618,468.84a500.52,500.52,0,0,0,10.4-52.92,505,505,0,0,0,4.72-55.43,28.83,28.83,0,0,1,5.24,8.35c2.24,6.06,3.74,15.9.75,31,0,0-12.6,84.72-24.57,92l-52.28,24.88Z" fill="#ffbc00"/><path d="M622.05,373.09,610.71,409s-5.35-12.92-25.51-13.23l18.27,29s-6.3,55.43-15.44,48.51c0,0,2.52-3.15-2.52-11.34,0,0-14-19.26-44.26-21.55a81.6,81.6,0,0,1-9.59-1.33c-8.47-1.65-24.09-4.81-34.65-7.67,0,0,12.29-11,17.64-31.81l18.27-57.95s.31-14.49,22.72-8.7l28.93-1.07,1.26-1.57,2,.75,25.06,9.33S630.55,346.64,622.05,373.09Z" fill="#3db2ff"/><path d="M603.47,424.74s-6.3,55.43-15.44,48.51c0,0,2.52-3.15-2.52-11.34,0,0-14-19.26-44.26-21.55a81.6,81.6,0,0,1-9.59-1.33c-8.47-1.65-24.09-4.81-34.65-7.67,0,0,12.29-11,17.64-31.81l18.27-57.95s.31-14.49,22.72-8.7l28.93-1.07,1.26-1.57,2,.75c-1.73,1.69-24.11,23-32.58,11.53,0,0-4.73-5-11.34,5l-21.1,42.2s-11.65,17,6,15.75l38.43,2.84s9.76.31,13.23-10.4l9.13-29.92s6,.32,1.57,11.34l-6,16.38Z" fill="#fff" opacity="0.2"/><path d="M581.58,291.36V310.1a23,23,0,0,1-23,23,22.15,22.15,0,0,1-3-.19,23,23,0,0,1-20-22.8V291.36a23,23,0,0,1,46,0Z" fill="#f1c4b3"/><path d="M593.87,295.18c-.29,2.56-1.27,7.52-2.53,10l-6.88-4-3-.89s-1.57,1.57-1.57,5.35c0,0-2.52,2.21-1.58-5.35,0,0,4.09-21.42-23-22.36,0,0-20.16.63-19.84,15.43,0,0-5.22-3.81-2.53-11.75a24.75,24.75,0,0,1,3.79-6.83s12.95-16.7,37.1-9.75A27.91,27.91,0,0,1,594,294.4C593.93,294.66,593.9,294.92,593.87,295.18Z" fill="#51261e"/><path d="M584.46,301.23l-.52,4.78-3.78,1.89c-6,1.89-4.09-13.23-4.09-13.23-.63-11.65-17.64-14.49-17.64-14.49-18.27-1.26-23,12.28-23,12.28-.32-14.8,19.84-14.48,19.84-14.48,27.08.94,23,22.36,23,22.36-.94,7.56,1.58,5.35,1.58,5.35,0-3.78,1.57-5.35,1.57-5.35Z" fill="#f19e9d"/><path d="M593.87,295.18a37.88,37.88,0,0,1-2.53,10.35l-6.88-4.3-3-.89s-1.57,1.57-1.57,5.35c0,0-2.52,2.21-1.58-5.35,0,0,4.09-21.42-23-22.36,0,0-21.58-.48-19.84,15.43,0,0-5.22-3.81-2.53-11.75-.16.95-.7,4.83,1,7,0,0,1.89-12.91,21.42-12.28,0,0,13.54.32,23.62,9.76C578.9,286.16,585.57,293.33,593.87,295.18Z" opacity="0.2"/><path d="M584.57,331.83c-5.67,6.93-15.43,10.71-15.43,10.71-12.92,5.36-13.23-4.09-13.23-4.09l-.27-5.55a22.15,22.15,0,0,0,3,.19,23,23,0,0,0,21.47-14.76A19.65,19.65,0,0,0,584.57,331.83Z" fill="#f1c4b3"/><path d="M555.64,332.9s11.85,6.78,25.43-7.7a14.1,14.1,0,0,1-1-6.87S575.22,334,555.64,332.9Z" fill="#f19e9d"/><path d="M584.88,395.45l-6,16.7s-44.09-4.73-55.43-4.73l-5.67,15.75s51.53,14.56,72.46,14.37a8.52,8.52,0,0,0,6-2.53c3.68-3.72,10.47-12.07,14.45-26C610.71,409,607.56,396.71,584.88,395.45Z" fill="#f1c4b3"/><path d="M584.57,395.77s23.16,10.24,23.86,20.08l2.28-6.85S606,396.08,584.57,395.77Z" fill="#f19e9d"/><path d="M550.71,331.68a47.71,47.71,0,0,1-5.19,4.25c-3.15,2.83-6,10.39-6,10.39l-1.81,4-17.4,38.8c-7.43,18.78-16.32,21.89-22,21.55a8.89,8.89,0,0,1-8-6.61c-2.84-10.4,4.83-22.5,4.83-22.5,4.41-7.24,36.22-45.66,36.22-45.66,5-3.78,1.89-22.05,1.89-22.05-2.83-10.39,2.32-11.59,2.32-11.59l0,7.81C535.59,326,550.71,331.68,550.71,331.68Z" fill="#f1c4b3"/><rect x="443.16" y="405.85" width="51.97" height="5.67" fill="#3db2ff"/><rect x="495.12" y="405.85" width="29.29" height="5.67" fill="#1e3163"/><path d="M588,473.25c-24.56,26.14-42.83,24.56-42.83,24.56-17.64,6-47.56-8.19-47.56-8.19-9.76,2.21-46.29,6.62-46.29,6.62l9.76,42.83c4.09,17.32-2.84,17.64-2.84,17.64l1.89,7.87c-6.93,4.41-25.82,7.25-25.82,7.25l-1.58-5.36c-.93-3-2.64-4.21-3.88-4.7a10.09,10.09,0,0,1-5-4.23,24.28,24.28,0,0,1-1.48-3c-11-30.23-16.69-65.51-16.69-65.51-1.58-19.21,6.3-27.4,6.3-27.4l-3.15-.31a25.35,25.35,0,0,1,4.41-22.36l13.85,1.57c4.1-6,26.77,1.89,26.77,1.89l40.92-10.45,2.23-.57c12,3.15,34.65,7.67,34.65,7.67a40.73,40.73,0,0,0,9.59,1.33,57.17,57.17,0,0,1,12.88,2.13c22.16,5.78,31.38,19.42,31.38,19.42C590.87,470.41,588,473.25,588,473.25Z" fill="#1e3163"/><path d="M588,473.25c-24.56,26.14-42.83,24.56-42.83,24.56,12.25-3.43,26.22-17.91,31.81-24.18a8.91,8.91,0,0,0,0-11.93c-8.18-9-30.21-15.23-30.21-15.23-21-5-48.11-13.33-52-14.54l2.23-.57c12,3.15,34.65,7.67,34.65,7.67a40.73,40.73,0,0,0,9.59,1.33,57.17,57.17,0,0,1,12.88,2.13c22.16,5.78,31.38,19.42,31.38,19.42C590.87,470.41,588,473.25,588,473.25Z" opacity="0.2"/><g opacity="0.2"><path d="M531.34,495.45a.15.15,0,0,1-.14-.09.16.16,0,0,1,.07-.21c11.42-5.55,9.08-20.78,9.05-20.93a.17.17,0,0,1,.13-.19.16.16,0,0,1,.18.14c0,.15,2.41,15.61-9.22,21.26Z"/></g><path d="M453.86,442.38l61.74,9.13s22,4.41,28,8.51c0,0-5.67-12-18.59-13.23l-60.47-7.24Z" opacity="0.2"/><path d="M412,461.59l6.61.32s-.31-11,6.93-16.07l-1.89,16.7s-.95,6,5,7.87l69,19.21-46.29,6.62s-1.58-17.64-18.27-22.36c0,0-13.63-4.73-26.35-.79C406.73,473.09,407.25,468.21,412,461.59Z" opacity="0.2"/><polygon points="458.27 556.71 435.6 563.01 458.89 559.84 458.27 556.71" opacity="0.2"/><path d="M408.51,459.7h0a12.26,12.26,0,0,0-3,1.17c-6.1,3.18-15.54,11.68-23.31,19.23l-1.17,1.13c-5.28,5.17-9.63,9.73-11.39,11.59a4.55,4.55,0,0,1-3.27,1.47c-4.36,0-5.75-6.25-5.75-6.25-1.17-6.44.81-13.15,4.36-19.52,9.8-17.64,31.54-32.76,31.54-32.76,4.41,2.2,15.12,5,15.12,5A26.46,26.46,0,0,0,408.51,459.7Z" fill="#3db2ff"/><path d="M408.51,459.7h0a13.46,13.46,0,0,0-2.91,1.27l-.05-.1c-.26-.52-1.39-3.37-1.11-13.15,0,0,1.89-7.55-7.25-8.18,0,0-3.15-1.26-6.61,3.15,0,0-17.95,17-22.05,24.25,0,0,12.23,2,13.71,13.16l-1.17,1.13c-5.28,5.17-9.63,9.73-11.39,11.59a4.55,4.55,0,0,1-3.27,1.47c-4.36,0-5.75-6.25-5.75-6.25-1.17-6.44.81-13.15,4.36-19.52,9.8-17.64,31.54-32.76,31.54-32.76,4.41,2.2,15.12,5,15.12,5A26.46,26.46,0,0,0,408.51,459.7Z" opacity="0.2"/><path d="M368.13,494s-7.18,4.41-11.27-4.41c0,0-5.35-10.39,3.15-22l24.57-30.24s4.4-8.5,12-1.57c0,0-20.58,13.87-31.54,32.76,0,0-7.57,11.68-3.6,21.74C361.4,490.27,363,495.6,368.13,494Z" fill="#e6e6e6"/><polygon points="452.92 632.93 535.12 610.25 616.07 636.39 613.54 642.06 541.42 619.7 541.42 638.91 531.34 638.6 531.34 619.7 454.5 639.54 452.92 632.93" fill="#747bff"/><circle cx="622.21" cy="643.48" r="12.13" fill="#ffc931"/><circle cx="536.22" cy="643.79" r="12.13" fill="#ffc931"/><circle cx="452.45" cy="644.11" r="12.13" fill="#ffc931"/><path d="M367.57,322.38l-18.9,88.51h31.5l1.89-88.51S368.52,321.43,367.57,322.38Z" fill="#1e3163"/><path d="M386.15,403l-1.26-79.37-2.83-1.26-1.89,88.51H412.9a1.1,1.1,0,0,0,.86-1.77l-2.1-2.73a6.65,6.65,0,0,0-5-2.56Z" fill="#1e3163"/><path d="M386.15,403l-1.26-79.37-2.83-1.26-1.89,88.51H412.9a1.1,1.1,0,0,0,.86-1.77l-2.1-2.73a6.65,6.65,0,0,0-5-2.56Z" opacity="0.2"/><polygon points="384.89 323.64 403.38 377.4 385.28 377 384.89 323.64" fill="#fff" opacity="0.2"/><rect x="650.39" y="418.76" width="10.08" height="243.77" fill="#9da2fe"/><rect x="294.18" y="420.02" width="10.08" height="243.77" fill="#9da2fe"/><path d="M550.52,332a38.8,38.8,0,0,1-5,4c-3.15,2.83-6,10.39-6,10.39l-1.81,4c.55-2.9,3-14.06,8.74-17.89,0,0-17.1-10.26-10.91-30.17l0,7.81C535.12,325.53,550.52,332,550.52,332Z" fill="#f19e9d"/><path d="M536.7,301.6s1.89-3.47,6.61-2.52" fill="none" stroke="#51261e" stroke-linecap="round" stroke-linejoin="round"/><path d="M559.37,296.87s5.36-.63,7.25,1.89" fill="none" stroke="#51261e" stroke-linecap="round" stroke-linejoin="round"/><ellipse cx="563" cy="306.48" rx="1.42" ry="2.68" fill="#51261e"/><ellipse cx="542.52" cy="308.37" rx="1.42" ry="2.68" fill="#51261e"/><path d="M549.29,306.64s-1.88,7.56,4.1,8.5" fill="none" stroke="#51261e" stroke-linecap="round" stroke-linejoin="round"/><path d="M550.55,323s2.21-2.2,6.3-.31" fill="none" stroke="#51261e" stroke-linecap="round" stroke-linejoin="round"/><ellipse cx="568.03" cy="310.73" rx="3.46" ry="2.68" transform="translate(-37.79 539.19) rotate(-49.34)" fill="#f19e9d"/><ellipse cx="540.1" cy="314.74" rx="1.95" ry="2.3" transform="matrix(0.96, -0.29, 0.29, 0.96, -67.61, 168.24)" fill="#f19e9d"/><ellipse cx="585.36" cy="305.38" rx="8.82" ry="5.83" transform="translate(240.96 868.66) rotate(-86.11)" fill="#f1c4b3"/><ellipse cx="585.67" cy="305.22" rx="2.2" ry="3.46" fill="#f19e9d"/><path d="M286,411.2H665.2a12.28,12.28,0,0,1,12.28,12.28v0a0,0,0,0,1,0,0H273.71a0,0,0,0,1,0,0v0A12.28,12.28,0,0,1,286,411.2Z" fill="#747bff"/><path d="M381.05,481.24c-5.28,5.17-9.63,9.73-11.39,11.59a4.55,4.55,0,0,1-3.27,1.47c-4.36,0-5.75-6.25-5.75-6.25-1.17-6.44.81-13.15,4.36-19.52C368.9,468.75,377.92,470.47,381.05,481.24Z" fill="#3db2ff"/><path d="M381.05,481.24c-5.28,5.17-9.63,9.73-11.39,11.59a4.55,4.55,0,0,1-3.27,1.47c-4.36,0-5.75-6.25-5.75-6.25-1.17-6.44.81-13.15,4.36-19.52C368.9,468.75,377.92,470.47,381.05,481.24Z" fill="#fff" opacity="0.2"/><path d="M332.46,142.46q0,3.54-.27,7-.1,1.5-.27,3a92.07,92.07,0,0,1-17.45,44.83l-.33.45-.22.29-.83,1.08h0l0,0-.15.19-.22.28h0l-.39.5-.82,1c-.34.42-.68.83-1,1.24-.7.82-1.41,1.63-2.14,2.43-.36.4-.73.79-1.09,1.18l-1.1,1.14-1.32,1.33-1,1-1.18,1.1-1.19,1.08c-.8.72-1.62,1.42-2.44,2.1l-1.25,1A92.55,92.55,0,1,1,258.93,51.83l1.22.27,1.39.31h0l1.39.34,1.17.31c.74.2,1.47.41,2.2.63l1.09.33,1.08.35.54.17.54.18.88.31c.86.3,1.72.61,2.57.94s1.94.76,2.9,1.16l1.43.62c1,.43,1.89.86,2.83,1.31a92.69,92.69,0,0,1,17,10.66h0a92.63,92.63,0,0,1,34.61,61.42c0,.11,0,.23,0,.34.09.78.17,1.56.24,2.35C332.32,136.68,332.46,139.55,332.46,142.46Z" fill="#3db2ff"/><g opacity="0.4"><path d="M217.57,227.37h0c-2.51-.66-5.09-1.47-7.65-2.4a.15.15,0,0,1-.09-.18.15.15,0,0,1,.18-.08c2.56.93,5.13,1.73,7.63,2.4a.12.12,0,0,1,.1.16A.14.14,0,0,1,217.57,227.37Z" fill="#fff"/></g><g opacity="0.4"><path d="M206.75,223.74h-.05a87.83,87.83,0,0,1-51.28-105.29.14.14,0,0,1,.17-.1.13.13,0,0,1,.09.17,87.48,87.48,0,0,0,51.12,105,.14.14,0,0,1,.08.18A.14.14,0,0,1,206.75,223.74Z" fill="#fff"/></g><g opacity="0.4"><path d="M159.24,108.22l-.05,0a.13.13,0,0,1-.08-.17,88.37,88.37,0,0,1,8.12-14.85.13.13,0,0,1,.18,0,.13.13,0,0,1,0,.19,90,90,0,0,0-8.09,14.8A.14.14,0,0,1,159.24,108.22Z" fill="#fff"/></g><polygon points="227.32 101.34 236.76 103.29 239.98 106.63 244.17 107.27 245.5 111.25 244.52 113.95 241.67 115.25 234.66 114.11 234.47 113.25 237.78 110.94 235.49 106.72 229.23 105.86 225.89 103 227.32 101.34" fill="#fff" opacity="0.4"/><path d="M303.39,188.44l-7.49-1.26-9-1.15-6.64,1.47-6.51.1-6.54,3-3.81,1.07-2.36.52-3.93,3.58-3.91,2.67-6.61-2.37.18-6.33-4-.7-4.29,1-1.06-1.76-.43-4-2-1.81-2.92,1.1-.38,2.33-3.59,1L224,183.81,221.59,179l1.88-6.73,6.31-.95,2.06,1.13,2.58-.58,2.78-2.64,3,.23,5.34,5.79,1.45-.54-1.52-4.86-1.85-2.3-.48-4.17,7.17-5.19-.69-8.18,2.78-3.55,1.69-5.56,2.05-.91,4.22-4.32-.16-1.76-3.39,1-1-1.58-2.36.53-3.48,1.67,1.1-3.17,7.09-3.81,1.29-2.31,4.05,4,2.36,1.5,2.78-1.52-1.9-2.51-5.22-2.21-6.41-4.65-6.17-2.45-5.34.28-3.15-2-3.62-.1-.24,1,1,6.32,1.34,2-.41,7.29-5-2.48v-3.15l-5-1.14-2.45-1.93-.12-5.61,5.22-5.88-.69-5.25-2.32.75-1.92-1.6-1.39-3.08-1.55.12-.09,3.62-2.31,1L218,101.14l-2-.69-3.29-.62-3,2.47,5.19,3.12,1.67,3.48-9-4.07-6.64-4.61-1.7-5.7-6-.48-3.67,3.74a36.26,36.26,0,0,1-2.83,2.43,34,34,0,0,1-5,2l-.05,3.84-4.87,1.31,1,2.26,8.22-.47,5.08,3.59,1.66,7.51-.88,7.18,2,6.95-3.67,11.82,2.19,15.94,3.93,8.59,4.31,6.25,3.32-.28-1.84-3.2-2.28-2.19-2.13-4.48,1.84-.86L204.3,173l3.67,6.39,1.24,5.56,5.18,4,8.47,3.81,11.82.52,4.17,2.46,3.34,2.86,4.38,1.5,5,.24,4.68-1.26s.26,2.19.5,3.26-2,5.39-2,5.39l-1.39,4.81,2.78,4.34,5.15.88,8.11,5.39,3.29.62.69,3.22.7,1.39a92.18,92.18,0,0,0,40.34-31.13l-.22-1.58,3.47-11.82-3.22-1.31Z" fill="#fff" opacity="0.4"/><path d="M306.88,98.75l-3.26-3.55-4.05-4.06-2.29-6.25,4-.22L301,82.48l-2.84.4,2.12-1.6,2.25-2.08-.48-2.15-3.34-2.86-1.57-4.49a92.65,92.65,0,0,0-111.79-2.15L191.09,70,189,74.49l-3.89,1.76.86,5.89-1.58,1L182.72,86l1.07,3.82,3.75-.39-.69,4,3.65-.81L195,83.29l-.12-3.58L200.74,78l.94-2.91,6.07-2-.16-3.79L212,68a23.11,23.11,0,0,1,3.48-2.57,26.44,26.44,0,0,1,3.88.26l3.79,1.86,4.54-1,3.33-3.21,5-.7a5.42,5.42,0,0,0,2.55.34c1.07-.25,4-2.46,4-2.46l7.08,2.48,3,1.39.69,3.22,3.32-.29.64-2.17,3.08.7.17,1.76-6.06,3.11,4.69,3.91,8.68,2.58,4.17,3.57,4.81-.62.6-2.38,1.62-.81-6.53-3L269,74.3l2.59-1.48-3.38-3.07,3.6-1,5.29,1.53,2.22,4.91,3,2.27,3.32,5.79,5.48,2.38,1.57,7.08,5.65,2.13.29,2.38v2.94l2.15,3.57.85,1.83,3.79-.16.91-4Z" fill="#fff" opacity="0.4"/><path d="M332.11,133.78l-.05.06-.53.64-.76,4.67-5.22-.19-4.53-6.2-.72-1.27-.19-.34-.71-1.23-3.17-5.55-2.57-11.58-.29-.17-3.08-1.79-3-5.62,1.52-5.29-1.92-11.73,2.78.5-.91-4.08-2.55-.33-1.31-2.86.31-3.67-.26-1.19v0a92.35,92.35,0,0,1,25.41,45.88c.26,1.18.5,2.36.71,3.55.32,1.73.58,3.47.8,5.21,0,.11,0,.23,0,.34C332,132.25,332,133,332.11,133.78Z" fill="#fff" opacity="0.4"/><polygon points="255.01 86.18 239.48 83.1 233.3 84.7 232.71 89.11 229.51 86.89 225.04 89.01 226.18 96.18 230.65 98.12 232.54 93.42 236.47 95.93 244.41 100.24 247.07 106.17 254.23 112.01 262.91 108.51 261.97 105.35 259.24 102.13 256.9 93.64 258.23 89.52 255.01 86.18" fill="#fff" opacity="0.4"/><polygon points="267.65 88.33 264.24 88.18 261.97 91.16 264.86 97.05 267.65 96.43 267.65 88.33" fill="#fff" opacity="0.4"/><polygon points="288.5 87.97 280.36 85.73 278.28 83.49 276.71 84.52 279.16 88.47 281.69 93.76 285.19 94.33 285.65 93.33 283 90.55 289.05 91.45 288.5 87.97" fill="#fff" opacity="0.4"/><polygon points="243.06 179.33 242.4 180.38 249.26 180.88 252.5 183.31 256.67 182.83 257.65 180.14 252.53 180.38 243.06 179.33" fill="#fff" opacity="0.4"/><polygon points="263.06 179.16 258.84 181.45 259.87 183.03 265.44 181.78 266.14 179.83 264.25 180.47 263.06 179.16" fill="#fff" opacity="0.4"/><path d="M331,125.94h0l-11.59,4L254.56,152l-1.9.65-5.93-17.33,3.64-1.17,12.68-4.34,4.17-1.42,46.15-15.78,12.59-4.3h0a92.06,92.06,0,0,1,4.32,14.08C330.57,123.57,330.81,124.75,331,125.94Z" fill="#1e3163"/><text transform="translate(257.11 146.2) rotate(-18.87)" font-size="13.54" fill="#fff" font-family="MyriadPro-Regular, Myriad Pro"><tspan letter-spacing="0em">h</tspan><tspan x="7.46" y="0">ttps://</tspan><tspan x="41.56" y="0" letter-spacing="0.01em">ww</tspan><tspan x="61.81" y="0" letter-spacing="-0.04em">w</tspan><tspan x="71.25" y="0">.</tspan></text><path d="M222.74,382.26c-2.17,0-4.31-.05-6.44-.16-32.71-1.7-59.43-27.28-62.16-59.5C152,297.51,165,278.51,193.78,264.51c24.78-12,57.69-18.7,89.28-24.47a367.44,367.44,0,0,1,89.42-5.19c4.19.27,8.63.58,13.28.9C459.42,240.87,582.7,249.43,591,162.9c1.39-14.48-3.09-26.5-13.32-35.7-26.86-24.16-89.33-25.47-137-22.31a831.2,831.2,0,0,0-98.14,12.8l-.2-1a835.32,835.32,0,0,1,98.26-12.82c47.87-3.17,110.63-1.83,137.75,22.57,10.48,9.42,15.07,21.72,13.65,36.54-2,20.47-10.57,37-25.6,49.21-12.87,10.44-30.86,18-53.47,22.41-41.35,8.09-91,4.64-127.23,2.13-4.65-.32-9.09-.63-13.27-.9A366.44,366.44,0,0,0,283.24,241c-31.52,5.76-64.36,12.38-89,24.38-28.38,13.8-41.16,32.48-39.08,57.1,2.68,31.73,29,56.92,61.21,58.59,36.37,1.89,79.3-12.53,127.59-42.86l.53.85C298.82,367.76,257.9,382.26,222.74,382.26Z" fill="#1e3163"/><polygon points="134.28 323.15 190.82 325 163.87 274.31 134.28 323.15" fill="#fff"/><polygon points="138.04 320.88 186.96 322.3 163.83 279.2 138.04 320.88" fill="#3db2ff"/><path d="M158.82,307.67l0-11.56a2,2,0,0,1,2.2-1.94l1.06.13a2,2,0,0,1,1.7,2.13l-1.09,11.44a2,2,0,0,1-2.14,1.76h0A2,2,0,0,1,158.82,307.67Z" fill="none" stroke="#fff" stroke-miterlimit="10"/><circle cx="160.64" cy="313.84" r="2.78" fill="none" stroke="#fff" stroke-miterlimit="10"/><path d="M636.71,203.19a36.7,36.7,0,0,0-33.89,50.71l-10.26,15.16,16-5.73a36.67,36.67,0,1,0,28.18-60.14Z" fill="none" stroke="#747bff" stroke-miterlimit="10"/><path d="M629.89,224.07a9.47,9.47,0,0,1,3.8,3.51,9.84,9.84,0,0,1,1.38,5.25q0,10.56-12.76,10.66l-.1,6.4H620.3l-.15-8.1h1a17.08,17.08,0,0,0,8.55-1.85c2.14-1.24,3.2-3.61,3.2-7.11a7.67,7.67,0,0,0-2.35-5.9,9.81,9.81,0,0,0-12.28-.1,7.3,7.3,0,0,0-2.28,5.65h-2.15a9.62,9.62,0,0,1,1.35-5.15A8.73,8.73,0,0,1,619,224a12.51,12.51,0,0,1,5.41-1.15A12,12,0,0,1,629.89,224.07Zm-10,33.83a2,2,0,0,1,1.41-3.35,1.83,1.83,0,0,1,1.35.55,2.06,2.06,0,0,1,0,2.8,1.83,1.83,0,0,1-1.35.55A1.91,1.91,0,0,1,619.85,257.9Z" fill="#3db2ff"/><path d="M654.76,224.07a9.54,9.54,0,0,1,3.8,3.51,9.84,9.84,0,0,1,1.38,5.25q0,10.56-12.76,10.66l-.1,6.4h-1.91l-.15-8.1h1a17.09,17.09,0,0,0,8.56-1.85c2.14-1.24,3.2-3.61,3.2-7.11a7.67,7.67,0,0,0-2.35-5.9,9.81,9.81,0,0,0-12.28-.1,7.3,7.3,0,0,0-2.28,5.65h-2.15a9.62,9.62,0,0,1,1.35-5.15,8.73,8.73,0,0,1,3.75-3.36,12.48,12.48,0,0,1,5.41-1.15A12,12,0,0,1,654.76,224.07Zm-10,33.83a2.06,2.06,0,0,1,0-2.8,1.9,1.9,0,0,1,1.4-.55,1.84,1.84,0,0,1,1.36.55,2.06,2.06,0,0,1,0,2.8,1.84,1.84,0,0,1-1.36.55A1.9,1.9,0,0,1,644.72,257.9Z" fill="#3db2ff"/><path d="M373.59,189.43H362.37v-5.06L373.59,171H379v13.63h2.78v4.77H379v4.14h-5.36Zm0-4.77v-7l-5.93,7Z" fill="#3db2ff"/><path d="M383.65,182.4c0-4.21.76-7.15,2.28-8.84s3.82-2.52,6.92-2.52a10.16,10.16,0,0,1,3.71.55A6.71,6.71,0,0,1,398.9,173a7.82,7.82,0,0,1,1.43,1.86,9.76,9.76,0,0,1,.84,2.28,21,21,0,0,1,.61,5.18c0,4-.67,7-2,8.83s-3.71,2.78-7.06,2.75a9.94,9.94,0,0,1-4.52-.89,7.28,7.28,0,0,1-2.83-2.62,9.55,9.55,0,0,1-1.24-3.35A22.72,22.72,0,0,1,383.65,182.4Zm6.11,0c0,2.83.24,4.76.74,5.78a2.33,2.33,0,0,0,2.17,1.55,2.2,2.2,0,0,0,1.62-.66,4.08,4.08,0,0,0,1-2.07,22.13,22.13,0,0,0,.33-4.45c0-3-.25-4.92-.74-5.93a2.38,2.38,0,0,0-2.23-1.48,2.27,2.27,0,0,0-2.22,1.55,16.2,16.2,0,0,0-.68,5.73Z" fill="#3db2ff"/><path d="M404.3,182.4c0-4.21.76-7.15,2.27-8.84S410.4,171,413.5,171a10.16,10.16,0,0,1,3.71.55,6.81,6.81,0,0,1,2.34,1.43,7.63,7.63,0,0,1,1.43,1.86,10.23,10.23,0,0,1,.84,2.28,21,21,0,0,1,.62,5.18q0,6-2.05,8.83c-1.36,1.87-3.7,2.78-7,2.75a9.91,9.91,0,0,1-4.52-.89,7.25,7.25,0,0,1-2.82-2.62,9.51,9.51,0,0,1-1.26-3.35A22.73,22.73,0,0,1,404.3,182.4Zm6.1,0q0,4.24.74,5.78a2.35,2.35,0,0,0,2.18,1.55,2.21,2.21,0,0,0,1.62-.66,4.08,4.08,0,0,0,1-2.07,22.13,22.13,0,0,0,.33-4.45q0-4.44-.74-5.93a2.4,2.4,0,0,0-2.22-1.48,2.31,2.31,0,0,0-2.23,1.55,15.9,15.9,0,0,0-.69,5.73Z" fill="#3db2ff"/><path d="M436.25,171.41H454.6v4.72H443.11v3.53h10.66v4.52H443.11v4.37h11.82v5H436.25Z" fill="#1e3163"/><path d="M458.71,193.57V171.41h11.42A16.89,16.89,0,0,1,475,172a5.17,5.17,0,0,1,2.71,2,6.24,6.24,0,0,1-1.56,8.69,2.92,2.92,0,0,1-.37.24,8.27,8.27,0,0,1-2.4.89,6.51,6.51,0,0,1,1.78.81,6.36,6.36,0,0,1,1.09,1.17,8.27,8.27,0,0,1,1,1.37l3.31,6.42h-7.74l-3.66-6.77a5.11,5.11,0,0,0-1.24-1.71,2.84,2.84,0,0,0-1.67-.51h-.61v9Zm6.88-13.17h2.89a10.08,10.08,0,0,0,1.81-.31,1.77,1.77,0,0,0,1.11-.7,2.22,2.22,0,0,0-.24-3,4.18,4.18,0,0,0-2.56-.57h-3Z" fill="#1e3163"/><path d="M482.79,193.57V171.41H494.2a16.58,16.58,0,0,1,4.86.55,5.14,5.14,0,0,1,2.7,2,6.26,6.26,0,0,1-1.57,8.71c-.11.08-.23.15-.35.22a8.27,8.27,0,0,1-2.4.89,4.54,4.54,0,0,1,2.87,2,7.66,7.66,0,0,1,1,1.37l3.32,6.42h-7.74l-3.66-6.77a5.11,5.11,0,0,0-1.24-1.71,2.86,2.86,0,0,0-1.67-.51h-.59v9Zm6.9-13.17h2.89a10.08,10.08,0,0,0,1.81-.31,1.77,1.77,0,0,0,1.11-.7,2.22,2.22,0,0,0-.24-3,4.18,4.18,0,0,0-2.56-.57h-3Z" fill="#1e3163"/><path d="M505.39,182.51c0-3.62,1-6.44,3-8.45s4.82-3,8.42-3,6.53,1,8.53,3,3,4.75,3,8.32a13.62,13.62,0,0,1-1.28,6.41,9.3,9.3,0,0,1-3.78,3.88,12.57,12.57,0,0,1-6.15,1.31,14.35,14.35,0,0,1-6.2-1.19,9.33,9.33,0,0,1-4-3.78A12.49,12.49,0,0,1,505.39,182.51Zm6.84,0c0,2.24.42,3.84,1.26,4.82a4.7,4.7,0,0,0,6.65.15l.15-.15c.81-1,1.21-2.69,1.22-5.19a6.87,6.87,0,0,0-1.27-4.57,4.34,4.34,0,0,0-3.43-1.44,4.17,4.17,0,0,0-3.32,1.49,7.82,7.82,0,0,0-1.26,4.92Z" fill="#1e3163"/><path d="M532.13,193.57V171.41h11.41a16.55,16.55,0,0,1,4.85.55,5.13,5.13,0,0,1,2.71,2,6.24,6.24,0,0,1-1.92,8.93,8.27,8.27,0,0,1-2.4.89,6.32,6.32,0,0,1,1.77.81,7.16,7.16,0,0,1,1.1,1.17,7.66,7.66,0,0,1,1,1.37l3.32,6.42h-7.74l-3.66-6.77a5.11,5.11,0,0,0-1.24-1.71,2.87,2.87,0,0,0-1.68-.51H539v9ZM539,180.4h2.88a10.18,10.18,0,0,0,1.82-.31,1.77,1.77,0,0,0,1.11-.7,2,2,0,0,0,.43-1.28,2,2,0,0,0-.68-1.65,4.18,4.18,0,0,0-2.56-.57h-3Z" fill="#1e3163"/><path d="M392.83,159.09v-16.5H399a7.64,7.64,0,0,1,3,.51,3.79,3.79,0,0,1,1.79,1.54,4.1,4.1,0,0,1,.66,2.18,3.72,3.72,0,0,1-.58,2,4.1,4.1,0,0,1-1.74,1.48,4.34,4.34,0,0,1,2.31,1.48,4,4,0,0,1,.8,2.5,4.75,4.75,0,0,1-.49,2.16,4.13,4.13,0,0,1-1.21,1.54,5,5,0,0,1-1.81.82,10.78,10.78,0,0,1-2.66.27Zm2.22-9.58h3.57a7.65,7.65,0,0,0,2.08-.19,2.31,2.31,0,0,0,1.26-.81,2.41,2.41,0,0,0,.42-1.45,2.58,2.58,0,0,0-.4-1.48,1.93,1.93,0,0,0-1.12-.86,9.22,9.22,0,0,0-2.51-.23h-3.3Zm0,7.63h4.11a10.41,10.41,0,0,0,1.48-.07,3.47,3.47,0,0,0,1.26-.46,2.3,2.3,0,0,0,.84-.91,3,3,0,0,0,.33-1.4,2.69,2.69,0,0,0-.48-1.6,2.33,2.33,0,0,0-1.31-.95,7.91,7.91,0,0,0-2.42-.29h-3.81Z" fill="#1e3163"/><path d="M415.85,157.61a7.52,7.52,0,0,1-2.17,1.35,6.27,6.27,0,0,1-2.22.4,4.32,4.32,0,0,1-3-1,3.15,3.15,0,0,1-1.06-2.46,3.35,3.35,0,0,1,1.43-2.77,5.07,5.07,0,0,1,1.48-.67,13.94,13.94,0,0,1,1.81-.3,18.58,18.58,0,0,0,3.61-.7V151a2.22,2.22,0,0,0-.57-1.74,3.37,3.37,0,0,0-2.31-.69,3.62,3.62,0,0,0-2.11.5,3.15,3.15,0,0,0-1.06,1.8l-2-.27a4.75,4.75,0,0,1,.89-2.06,3.84,3.84,0,0,1,1.83-1.2,7.82,7.82,0,0,1,2.72-.42,7.09,7.09,0,0,1,2.46.35,3.31,3.31,0,0,1,1.41.91,3.27,3.27,0,0,1,.63,1.38,11.74,11.74,0,0,1,.11,1.87v2.7a26.72,26.72,0,0,0,.12,3.58,4.53,4.53,0,0,0,.51,1.43h-2.11A4.28,4.28,0,0,1,415.85,157.61Zm-.17-4.53a15,15,0,0,1-3.31.74,7.58,7.58,0,0,0-1.77.4,1.77,1.77,0,0,0-.47,3,2.69,2.69,0,0,0,1.8.54,4.2,4.2,0,0,0,2.08-.52,3.13,3.13,0,0,0,1.34-1.4,5,5,0,0,0,.33-2Z" fill="#1e3163"/><path d="M428.63,159.09v-1.48a3.72,3.72,0,0,1-3.35,1.78,4.72,4.72,0,0,1-2.62-.8,5.09,5.09,0,0,1-1.86-2.22,7.57,7.57,0,0,1-.66-3.25,8.82,8.82,0,0,1,.59-3.25,4.62,4.62,0,0,1,4.47-3,3.88,3.88,0,0,1,1.92.45,4,4,0,0,1,1.38,1.19v-5.93h2v16.47Zm-6.38-5.93a5.19,5.19,0,0,0,1,3.43,2.9,2.9,0,0,0,2.29,1.14,2.86,2.86,0,0,0,2.26-1.09,5,5,0,0,0,.92-3.31,5.64,5.64,0,0,0-.94-3.61,2.92,2.92,0,0,0-2.33-1.15,2.88,2.88,0,0,0-2.23,1.11A5.51,5.51,0,0,0,422.25,153.16Z" fill="#1e3163"/><path d="M440.4,159.09v-16.5h7.32a9.55,9.55,0,0,1,3.36.45,3.67,3.67,0,0,1,1.84,1.57,4.65,4.65,0,0,1,.69,2.49,4.11,4.11,0,0,1-1.14,3,5.78,5.78,0,0,1-3.54,1.53,5.45,5.45,0,0,1,1.34.83,11.39,11.39,0,0,1,1.82,2.22l2.87,4.45h-2.75L450,155.66c-.64-1-1.16-1.75-1.57-2.28a5,5,0,0,0-1.11-1.1,3.75,3.75,0,0,0-1-.45,7.08,7.08,0,0,0-1.22-.07h-2.53v7.33Zm2.19-9.23h4.7a7.14,7.14,0,0,0,2.34-.3,2.54,2.54,0,0,0,1.29-1,2.79,2.79,0,0,0,.44-1.49,2.49,2.49,0,0,0-.86-1.92,3.89,3.89,0,0,0-2.68-.74h-5.23Z" fill="#1e3163"/><path d="M465,155.26l2.1.25a5.1,5.1,0,0,1-1.82,2.84,6.23,6.23,0,0,1-7.59-.6,6.34,6.34,0,0,1-1.54-4.54,6.6,6.6,0,0,1,1.56-4.68,5.25,5.25,0,0,1,4-1.67,5.14,5.14,0,0,1,3.92,1.63,6.53,6.53,0,0,1,1.52,4.6v.54h-8.89a4.6,4.6,0,0,0,1.06,3,3.3,3.3,0,0,0,2.49,1.05,3.08,3.08,0,0,0,1.91-.58A4,4,0,0,0,465,155.26ZM458.29,152H465a4.09,4.09,0,0,0-.74-2.27,3.14,3.14,0,0,0-2.51-1.17,3.22,3.22,0,0,0-2.35.92,3.64,3.64,0,0,0-1.05,2.52Z" fill="#1e3163"/><path d="M477.23,163.69v-5.85a3.8,3.8,0,0,1-1.32,1.1,3.93,3.93,0,0,1-1.81.44,4.77,4.77,0,0,1-3.67-1.71,6.63,6.63,0,0,1-1.54-4.66,8,8,0,0,1,.63-3.23,4.74,4.74,0,0,1,1.81-2.17,4.82,4.82,0,0,1,2.61-.74,4,4,0,0,1,3.49,1.84v-1.57h1.83v16.55ZM471,153.09a5.32,5.32,0,0,0,1,3.46,3,3,0,0,0,2.33,1.16,2.83,2.83,0,0,0,2.22-1.1,5,5,0,0,0,.94-3.34,5.6,5.6,0,0,0-1-3.59,3,3,0,0,0-2.32-1.21,2.75,2.75,0,0,0-2.22,1.13A5.41,5.41,0,0,0,471,153.09Z" fill="#1e3163"/><path d="M490.27,159.09v-1.74a4.37,4.37,0,0,1-3.8,2,4.77,4.77,0,0,1-2-.41,3.18,3.18,0,0,1-1.36-1,3.71,3.71,0,0,1-.63-1.49,10.85,10.85,0,0,1-.13-1.89v-7.41h2v6.67a11.83,11.83,0,0,0,.13,2.14,2.13,2.13,0,0,0,.81,1.26,2.54,2.54,0,0,0,1.53.45,3.31,3.31,0,0,0,1.71-.47,2.57,2.57,0,0,0,1.14-1.27,6.41,6.41,0,0,0,.33-2.34v-6.47h2v12Z" fill="#1e3163"/><path d="M503.45,155.26l2.1.25a5.08,5.08,0,0,1-1.84,2.84,6.23,6.23,0,0,1-7.59-.6,6.37,6.37,0,0,1-1.53-4.54,6.6,6.6,0,0,1,1.55-4.68,5.29,5.29,0,0,1,4-1.67,5.14,5.14,0,0,1,3.92,1.63,6.57,6.57,0,0,1,1.52,4.6v.54h-8.9a4.6,4.6,0,0,0,1.12,3,3.31,3.31,0,0,0,2.5,1.06,3.08,3.08,0,0,0,1.9-.59A3.82,3.82,0,0,0,503.45,155.26ZM496.78,152h6.67a4,4,0,0,0-.74-2.27,3.14,3.14,0,0,0-2.51-1.17,3.2,3.2,0,0,0-2.36.92,3.68,3.68,0,0,0-1,2.52Z" fill="#1e3163"/><path d="M507.28,155.54l2-.32a2.85,2.85,0,0,0,1,1.85,3.25,3.25,0,0,0,2.15.64,3.15,3.15,0,0,0,2.08-.57,1.68,1.68,0,0,0,.67-1.33,1.26,1.26,0,0,0-.59-1.09,8.89,8.89,0,0,0-2.08-.68,18.8,18.8,0,0,1-3.09-1,3,3,0,0,1-1.75-2.74,3,3,0,0,1,.37-1.48,3.2,3.2,0,0,1,1-1.13,4.34,4.34,0,0,1,1.29-.6,6.1,6.1,0,0,1,1.75-.23,6.92,6.92,0,0,1,2.47.4,3.29,3.29,0,0,1,1.57,1.1,4.2,4.2,0,0,1,.74,1.85l-2,.27A2.16,2.16,0,0,0,514,149a2.84,2.84,0,0,0-1.83-.51,3.32,3.32,0,0,0-2,.46,1.33,1.33,0,0,0-.59,1.08,1.15,1.15,0,0,0,.24.74,1.93,1.93,0,0,0,.78.54c.2.07.8.24,1.79.51a26.07,26.07,0,0,1,3,.94,3.2,3.2,0,0,1,1.34,1.07,3,3,0,0,1,.48,1.73,3.45,3.45,0,0,1-.59,1.92,3.86,3.86,0,0,1-1.75,1.39,6.25,6.25,0,0,1-2.52.49,5.69,5.69,0,0,1-3.56-1A4.48,4.48,0,0,1,507.28,155.54Z" fill="#1e3163"/><path d="M524.05,157.3l.3,1.78a7.2,7.2,0,0,1-1.53.19,3.4,3.4,0,0,1-1.72-.36,1.93,1.93,0,0,1-.85-.91,7.16,7.16,0,0,1-.25-2.39v-6.9h-1.48v-1.57H520v-3l2-1.22v4.18h2v1.57h-2v7a3.46,3.46,0,0,0,.1,1.11.86.86,0,0,0,.35.4,1.28,1.28,0,0,0,.7.14A6.51,6.51,0,0,0,524.05,157.3Z" fill="#1e3163"/><path d="M705.07,534.51c10.47-21.43,28.79-32.56,49.46-26.38S778.37,543,763,550.28,732.14,536.34,724,532,705.07,534.51,705.07,534.51Z" fill="#ffc931"/><path d="M694.93,591.78c0-2.59.17-5.19.25-7.78q.29-7.77.56-15.53C696,559,697.11,549.71,701,541a42.54,42.54,0,0,1,16.6-19.14,34.62,34.62,0,0,1,8.72-3.77,20.42,20.42,0,0,1,10.19-5.59A41.92,41.92,0,0,1,751,512.1c.18,0,.17.3,0,.27a34.87,34.87,0,0,0-13.75,1,29.61,29.61,0,0,0-5.52,2.14,26.67,26.67,0,0,0-3.2,2,29.79,29.79,0,0,1,12.61.12,26.65,26.65,0,0,1,4.37,1.45,12.5,12.5,0,0,1,3.45-.3,21,21,0,0,1,4.46.63,33.63,33.63,0,0,1,8.49,3.71.15.15,0,0,1,0,.21.2.2,0,0,1-.13,0,31.66,31.66,0,0,0-8.24-3.14,29.29,29.29,0,0,0-4.27-.62,23.42,23.42,0,0,0-2.37,0,27.41,27.41,0,0,1,13.35,13.3c0,.17-.17.3-.23.13a25.15,25.15,0,0,0-17-13.63c-.47-.12-.93-.18-1.39-.26.17.66.13,1.43.23,2.07.13,1.06.31,2.1.51,3.14a56.45,56.45,0,0,0,1.65,6.29,50.75,50.75,0,0,0,2.51,6.1,28.66,28.66,0,0,0,3.49,5.89.15.15,0,0,1,0,.21.15.15,0,0,1-.21,0,.13.13,0,0,1-.05-.07c-1.24-1.94-2.67-3.72-3.81-5.75a41.66,41.66,0,0,1-4.63-12.45c-.23-1.17-.41-2.32-.54-3.51a7.55,7.55,0,0,1-.14-2.12,27.26,27.26,0,0,0-7.33-.15c.92,5.12,1.89,10.48,4.78,14.93.1.15-.17.28-.25.13a61.81,61.81,0,0,1-3.54-7.33,28.37,28.37,0,0,1-1.77-7.65A33.94,33.94,0,0,0,720.44,523a40,40,0,0,0-16.14,17.66,66.53,66.53,0,0,0-6,25.31c-.69,11-.82,22-1.93,33,0,.72-1.2,1-1.35.14A39.35,39.35,0,0,1,694.93,591.78Z" fill="#1e3163"/><path d="M719.1,520a12.08,12.08,0,0,1,2.38-2.19c.85-.71,1.73-1.4,2.65-2a19.89,19.89,0,0,1,6-2.75c.17,0,.23.23,0,.26a15.81,15.81,0,0,0-5.87,2.89c-.87.64-1.65,1.33-2.54,2a15.12,15.12,0,0,1-2.39,2C719.22,520.45,719.1,520.26,719.1,520Z" fill="#1e3163"/><path d="M752.53,527.9a60.53,60.53,0,0,1,4.8,6.36,37.86,37.86,0,0,1,3.58,7.07s0,.12-.13,0a84,84,0,0,0-8.44-13.28C752.22,528,752.42,527.77,752.53,527.9Z" fill="#1e3163"/><path d="M730,525.77a14.82,14.82,0,0,0,1.18,3.89,23.27,23.27,0,0,0,2,3.45c0,.08,0,.14-.14.1a14.19,14.19,0,0,1-3.29-7.37A.13.13,0,1,1,730,525.77Z" fill="#1e3163"/><path d="M696.4,535S681.56,516.41,653,523c-27.2,6.26-39.75,56.13-12.27,62.08s22.64-40.16,32.64-48C680.71,531.36,691.26,532.6,696.4,535Z" fill="#ffc931"/><path d="M630.87,550.23a57.16,57.16,0,0,1,5.9-4.51,26.52,26.52,0,0,1,6.28-3.13,38.54,38.54,0,0,1,3.73-4.8,36.77,36.77,0,0,1,8.66-6.89h-.86a43.16,43.16,0,0,0-4.55,0,25.37,25.37,0,0,0-8.82,2.19c-.17,0-.28-.18-.12-.25a40.87,40.87,0,0,1,8.77-2.65,24,24,0,0,1,4.47-.38c.8,0,1.61.05,2.41.13h.46a39,39,0,0,1,8.24-3l-.79-.22c-1.4-.3-2.81-.53-4.24-.69a34.14,34.14,0,0,0-8.57.13.13.13,0,1,1,0-.26,54.47,54.47,0,0,1,8.66-.36,36.42,36.42,0,0,1,7.2.94,36.46,36.46,0,0,1,5.21-.6c9.89-.43,20.85,3.3,27,11.54s7.35,19.16,8.42,29.05a219.67,219.67,0,0,1,1.1,41.58c0,.82-1.22.67-1.23-.1-.38-11.76-.79-23.53-1.91-35.23-.53-5.43-1.11-10.88-2-16.26a47.76,47.76,0,0,0-4-13.32,24.38,24.38,0,0,0-9.66-10.38A32.53,32.53,0,0,0,677,528.52a36.59,36.59,0,0,0-12.84,1.21,8.52,8.52,0,0,1,.08,2.52,15.92,15.92,0,0,1-.62,3.13,16.45,16.45,0,0,1-1.21,2.79c-.53,1-1.19,1.86-1.78,2.8a.14.14,0,0,1-.23-.15,13.29,13.29,0,0,0,2.23-5.65,28.3,28.3,0,0,0,.34-2.9V530a38.14,38.14,0,0,0-12.49,6.59c-.7.56-1.36,1.16-2,1.77a13.86,13.86,0,0,1,2.42,3,30.91,30.91,0,0,1,2.54,4.53,38.48,38.48,0,0,1,2.65,9.89.14.14,0,1,1-.28,0,28.58,28.58,0,0,0-3.3-9.43,36.42,36.42,0,0,0-2.53-4.19c-.48-.69-1-1.36-1.5-2-.29-.37-.6-.73-.86-1.11a39.64,39.64,0,0,0-8.11,11.43h0a18.66,18.66,0,0,1,3.29,4.81,43.08,43.08,0,0,1,2.67,5.72A93.12,93.12,0,0,1,649,572.79c0,.16-.23.21-.26,0a48.73,48.73,0,0,0-4.06-11.54c-.85-1.8-1.76-3.56-2.7-5.31a45.44,45.44,0,0,1-2.69-5A36.15,36.15,0,0,0,636,564.18a.15.15,0,0,1-.19.09.12.12,0,0,1-.09-.09,46,46,0,0,1,6.42-20.32c-1.76.74-3.51,1.45-5.19,2.35a30.42,30.42,0,0,0-6,4.19C630.92,550.56,630.74,550.35,630.87,550.23Z" fill="#1e3163"/><path d="M651.86,551.36c.85,2.83,1.94,5.57,2.72,8.42a32.29,32.29,0,0,1,1.25,8.41m-.13,0a81.12,81.12,0,0,0-4.11-16.83.14.14,0,0,1,.14-.14.13.13,0,0,1,.13.14h0Z" fill="#1e3163"/><path d="M633.74,544.28a15.85,15.85,0,0,1,3.79-2.7,27.24,27.24,0,0,1,4.39-1.55c.16,0,.21.23,0,.26A17.74,17.74,0,0,0,637.7,542a30.26,30.26,0,0,0-3.89,2.39.09.09,0,0,1-.08-.11S633.73,544.29,633.74,544.28Z" fill="#1e3163"/><path d="M682.31,510.14s-2.77-33.45-27.62-44.29c-20.77-9.05-32.65,14.29-18,28.58C648.59,506,667.65,500.76,682.31,510.14Z" fill="#ffc931"/><path d="M641.32,472.32a107.65,107.65,0,0,1,11.07,5.25,84.53,84.53,0,0,1,8.58,5.7c-.41-.84-.77-1.73-1.18-2.55-.66-1.31-1.35-2.56-2.11-3.8a36.08,36.08,0,0,0-5.49-6.94c-.13-.11.08-.31.2-.18a55.52,55.52,0,0,1,5.72,6.71c.85,1.22,1.64,2.49,2.37,3.79a15.66,15.66,0,0,1,1.65,3.86l.28.2A82.53,82.53,0,0,1,674.28,496a3.3,3.3,0,0,0-.22-1c-.46-1.65-1-3.3-1.51-4.87a41.59,41.59,0,0,0-4.42-9.69c-.1-.15.15-.28.23-.13a78.92,78.92,0,0,1,5.21,9.51,35.79,35.79,0,0,1,1.65,4.94,20.91,20.91,0,0,1,.81,3.3c1.08,1.37,2.15,2.77,3.16,4.19,10.68,15.21,16,33.6,17.33,52a164.92,164.92,0,0,1,.28,16.49,105.81,105.81,0,0,1-1.47,16.48c0,.35-.61.25-.59-.09.11-4.83.62-9.65.71-14.49a143.75,143.75,0,0,0-.47-14.53,134.56,134.56,0,0,0-5.42-28.47,101.85,101.85,0,0,0-12.66-26.77c-1-.22-2.08-.5-3.12-.76s-2.47-.64-3.71-1a35.87,35.87,0,0,1-6.87-2.54c-.17-.08,0-.33.15-.23a22.7,22.7,0,0,0,7,2.43c2,.39,4,.64,5.92,1.08a94.57,94.57,0,0,0-5.79-7.6,43.4,43.4,0,0,1-14.14-1A59.23,59.23,0,0,1,649.1,491c-2.48-1-4.84-2.19-7.3-3.3-.18,0,0-.36.12-.24a41.49,41.49,0,0,0,14.34,4.68,90,90,0,0,0,13.42,1.12c-1.77-2-3.6-4-5.54-5.87-6.59-6.22-14.29-11.94-22.9-14.84C641.08,472.54,641.16,472.23,641.32,472.32Z" fill="#1e3163"/><path d="M661.57,472.42a40.7,40.7,0,0,1,3.13,4.47,24.69,24.69,0,0,1,2.11,5.23s-.08.1-.1,0c-.82-1.65-1.53-3.3-2.37-4.95a26.5,26.5,0,0,0-3-4.52C661.25,472.49,661.4,472.23,661.57,472.42Z" fill="#1e3163"/><path d="M638.44,483.57a24.66,24.66,0,0,0,5.09,2.12,42.48,42.48,0,0,0,5.2,1.41m0,.14a24.92,24.92,0,0,1-5.4-1.18,42.63,42.63,0,0,1-5-2.29c-.19,0,0-.28.12-.2Z" fill="#1e3163"/><path d="M701.66,504.14c.15,1.44,3.76-12.15,24.73-24.22,19.1-11,41.9-39.48,23.18-57.48C734.5,407.93,694.67,439.58,701.66,504.14Z" fill="#ffc931"/><path d="M687.17,582.08a369.7,369.7,0,0,1,3.3-42.3,189.72,189.72,0,0,1,8.88-37.91c1.65-4.42,3.3-8.77,5.29-13.06a31.46,31.46,0,0,1,0-4.95c.1-2.14.3-4.28.5-6.42s.41-4.27.67-6.4.7-4.25.8-6.38c0-.2.31-.15.26,0a46.76,46.76,0,0,0-.76,6.77q-.2,3.15-.2,6.24v8.55q3-6.29,6.4-12.3c-1.42-8.72.43-17.83,2.21-26.37,0-.17.3,0,.26.08a74.79,74.79,0,0,0-1.38,13.52c-.08,3.58,0,7.17.1,10.75.49-.86,1-1.65,1.51-2.58,2.74-4.45,5.66-8.82,8.74-13.05a20.93,20.93,0,0,1,.21-6.22,49.66,49.66,0,0,1,1.52-6.79c.68-2.22,1.45-4.42,2.33-6.59s2.12-4.31,3-6.6c0-.18.35,0,.25.12a31.3,31.3,0,0,0-2.64,6.59,57.88,57.88,0,0,0-1.65,6.6c-.44,2.22-.82,4.43-1.12,6.67-.21,1.49-.34,3-.59,4.5a161,161,0,0,1,14.72-17.12c.13-.14.31,0,.2.19a193.38,193.38,0,0,0-21.43,29.08c-.23.4-.45.79-.68,1.17,1.17-.72,2.49-1.3,3.58-1.89l6.15-3.38,5.95-3.3c1-.58,2-1.17,3.07-1.65a22.56,22.56,0,0,0,3.56-2c.16-.11.33.14.16.24-2,1.1-3.82,2.75-5.77,4s-4,2.47-6,3.61c-3.74,2.08-7.81,3.58-11.54,5.74Q713.2,476,710,483c2.22-1.43,4.52-2.8,6.82-4.09,1.5-.84,3-1.65,4.5-2.45a22.81,22.81,0,0,0,4.26-2.58.13.13,0,1,1,.18.2h0a40.16,40.16,0,0,1-8.08,5.62c-2.7,1.57-5.42,3.1-8.24,4.47-2.24,4.95-4.29,9.89-6.08,15.07-8.86,25.06-12.12,51.68-13.67,78.11q-.69,11.82-.79,23.65c-.08,7.9.31,15.75.29,23.63a.21.21,0,0,1-.41,0c-1-7-1.12-14.1-1.42-21.14S687,589.27,687.17,582.08Z" fill="#1e3163"/><path d="M725.38,468.58a100.43,100.43,0,0,0,11.2-5.78,117.21,117.21,0,0,0,10.6-6.75s.13,0,0,.1A88.71,88.71,0,0,1,737,463.29a102.58,102.58,0,0,1-11.54,5.52C725.37,468.93,725.23,468.65,725.38,468.58Z" fill="#1e3163"/><path d="M719.3,440.24c.31-1.22.69-2.42,1.1-3.62a.09.09,0,0,1,0-.12h0c.27-.68.55-1.36.83-2a.27.27,0,0,1,.1-.25l.15-.38h0l-.2.71a2.4,2.4,0,0,1-.12.38,98.6,98.6,0,0,0-3.1,14.23c0,.16-.26.16-.24,0A46.44,46.44,0,0,1,719.3,440.24Z" fill="#1e3163"/><polygon points="664.95 587.16 666.45 604.95 671.05 659.22 720.26 659.22 724.86 604.95 726.36 587.16 664.95 587.16" fill="#747bff"/><polygon points="664.95 587.16 666.45 604.95 724.86 604.95 726.36 587.16 664.95 587.16" opacity="0.2"/><rect x="660.12" y="580.02" width="71.07" height="17.06" fill="#747bff"/></svg>