<svg xmlns="http://www.w3.org/2000/svg" viewBox="0 0 650 512" id="searching-data"><circle cx="328.735" cy="256.85" r="157.404" fill="#dbe8ec"></circle><path fill="#dbe8ec" d="M534.38765,226.17651V210.34927a11.37979,11.37979,0,0,0-11.37979-11.37979H482.84108a11.37979,11.37979,0,0,1-11.37979-11.37979V171.76246a11.37979,11.37979,0,0,1,11.37979-11.37979h1.26822a11.37978,11.37978,0,0,0,11.37979-11.37979V133.17565a11.37978,11.37978,0,0,0-11.37979-11.37979H192.27543a11.37979,11.37979,0,0,0-11.37979,11.37979v15.82723a11.37979,11.37979,0,0,0,11.37979,11.37979h0a11.37978,11.37978,0,0,1,11.37979,11.37979v15.82723a11.37978,11.37978,0,0,1-11.37979,11.37979H148.26879A11.37979,11.37979,0,0,0,136.889,210.34927v15.82724a11.37979,11.37979,0,0,0,11.37978,11.37979h17.26754a11.37978,11.37978,0,0,1,11.37979,11.37979V264.7634a11.37978,11.37978,0,0,1-11.37979,11.37978h-.04173A11.3798,11.3798,0,0,0,154.11481,287.523v15.82716a11.37979,11.37979,0,0,0,11.37979,11.37979h2.49825a11.37979,11.37979,0,0,1,11.37979,11.37979V341.937a11.37978,11.37978,0,0,1-11.37979,11.37979H126.99214a11.37979,11.37979,0,0,0-11.37979,11.37979v15.82724a11.37978,11.37978,0,0,0,11.37979,11.37978H490.21879a11.37978,11.37978,0,0,0,11.37979-11.37978V364.6966a11.37979,11.37979,0,0,0-11.37979-11.37979H480.352A11.37979,11.37979,0,0,1,468.97217,341.937V326.10971A11.3798,11.3798,0,0,1,480.352,314.72992h23.265a11.37978,11.37978,0,0,0,11.37978-11.37979V287.523A11.37979,11.37979,0,0,0,503.617,276.14318h-7.05753a11.37979,11.37979,0,0,1-11.37979-11.37978V248.93609a11.37979,11.37979,0,0,1,11.37979-11.37979h26.44839A11.37979,11.37979,0,0,0,534.38765,226.17651Z"></path><line x1="393.152" x2="423.473" y1="117.511" y2="117.511" fill="none" stroke="#b9d4db" stroke-linecap="round" stroke-miterlimit="10" stroke-width="3"></line><line x1="393.152" x2="423.473" y1="126.25" y2="126.25" fill="none" stroke="#b9d4db" stroke-linecap="round" stroke-miterlimit="10" stroke-width="3"></line><line x1="393.152" x2="423.473" y1="134.989" y2="134.989" fill="none" stroke="#b9d4db" stroke-linecap="round" stroke-miterlimit="10" stroke-width="3"></line><line x1="414.157" x2="444.478" y1="360.745" y2="360.745" fill="none" stroke="#b9d4db" stroke-linecap="round" stroke-miterlimit="10" stroke-width="3"></line><line x1="414.157" x2="444.478" y1="369.484" y2="369.484" fill="none" stroke="#b9d4db" stroke-linecap="round" stroke-miterlimit="10" stroke-width="3"></line><line x1="414.157" x2="444.478" y1="378.223" y2="378.223" fill="none" stroke="#b9d4db" stroke-linecap="round" stroke-miterlimit="10" stroke-width="3"></line><line x1="162.528" x2="192.849" y1="216.199" y2="216.199" fill="none" stroke="#b9d4db" stroke-linecap="round" stroke-miterlimit="10" stroke-width="3"></line><line x1="162.528" x2="192.849" y1="224.938" y2="224.938" fill="none" stroke="#b9d4db" stroke-linecap="round" stroke-miterlimit="10" stroke-width="3"></line><line x1="162.528" x2="192.849" y1="233.677" y2="233.677" fill="none" stroke="#b9d4db" stroke-linecap="round" stroke-miterlimit="10" stroke-width="3"></line><path fill="#e06714" d="M495.29558,331.85966,377.81538,343.6786l-117.4802-11.81894a2,2,0,0,1-1.7998-1.99l-2.76845-8.09676,2.76845-132.65435,119.28,12,119.28-12L499.72693,322.853l-2.63155,7.01676A2,2,0,0,1,495.29558,331.85966Z"></path><path fill="#ee781d" d="M499.72693,322.853,377.81538,334.618,255.76693,321.773l2.76845-139.50369a2,2,0,0,1,2.2002-1.99L377.81538,192.058l117.0798-11.77865a2,2,0,0,1,2.2002,1.99Z"></path><polygon fill="#e06714" points="376.855 325.258 494.087 313.853 489.198 180.852 385.606 191.274 376.855 325.258"></polygon><polygon fill="#e06714" points="376.855 176.458 479.335 164.938 484.082 314.826 376.855 325.258 376.855 176.458"></polygon><polygon fill="#e06714" points="382.615 175.498 274.855 173.578 280.615 319.498 376.855 325.258 382.615 175.498"></polygon><polygon fill="#f9ae2b" points="377.815 168.538 480.295 157.018 487.495 307.258 377.815 317.338 377.815 168.538"></polygon><polygon fill="#e59413" points="377.815 312.364 377.815 317.338 487.495 307.258 487.258 302.306 377.815 312.364"></polygon><polygon fill="#f9ae2b" points="377.815 168.538 270.055 166.618 275.815 312.538 377.815 317.338 377.815 168.538"></polygon><polygon fill="#e59413" points="275.815 312.538 377.815 317.338 377.815 312.214 275.815 307.413 275.815 312.538"></polygon><path fill="#e59413" d="M282.60066 263.8533a54.05616 54.05616 0 0040.4815 50.90906l44.89325 2.11255V174.778s-33.92065 2.40845-69.09259-7.64648l-18.81964-.33521zM435.05726 312.0773a81.2126 81.2126 0 0033.94421-70.11841l-4.11206-83.20911-24.85388 2.79383c-22.7196 11.50281-50.50238 18.71216-50.50238 18.71216V316.26114z"></path><path fill="#f9ae2b" d="M377.81538,168.538s57.36-14.88,74.64-36l4.82836,97.70322a81.21772,81.21772,0,0,1-62.338,83.02522L377.81538,317.338Z"></path><path fill="#e59413" d="M393.06385,168.538l-15.24847,148.8s19.4169-1.467,20.93954-1.92442c17.05024-15.64062,26.75754-41.91973,24.444-65.26519l-9.29345-93.77942c-6.17029,2.53211-12.21875,4.72376-17.55018,6.52234C394.4,166.29129,393.06385,168.538,393.06385,168.538Z"></path><path fill="#f9ae2b" d="M377.81538 168.538s16.56-27.84 18.48-36l11.65507 117.61031a74.05024 74.05024 0 01-30.135 67.18967l0 0zM377.81538 168.538s-47.28 3.36-88.08-14.4l2.70524 103.47537a54.06259 54.06259 0 0043.76165 51.66283l41.61311 8.0618z"></path><path fill="#e59413" d="M377.81538 168.538c.82761 12.4 1.26059 24.8 1.55472 37.2.18427 6.2.22522 12.4.33362 18.6l.11046 18.6-.105 18.6c-.11151 6.2-.147 12.4-.33307 18.6-.293 12.4-.72809 24.8-1.56069 37.2-.83261-12.4-1.2677-24.8-1.5607-37.2-.18605-6.2-.22155-12.4-.33306-18.6l-.10505-18.6.11046-18.6c.1084-6.2.14936-12.4.33362-18.6C376.55478 193.338 376.98776 180.938 377.81538 168.538zM307.96693 189.493c5.04345.42658 9.98935 1.03365 14.93308 1.6145l14.77342 1.76915c4.91741.57886 9.8319 1.06214 14.7645 1.54462 4.9384.47008 9.87448.761 14.929 1.19174a70.35258 70.35258 0 01-15.02732 1.95194 109.63853 109.63853 0 01-15.12471-.71589 125.97344 125.97344 0 01-14.87588-2.65777A88.70831 88.70831 0 01307.96693 189.493zM307.96693 210.84843c5.04345.42658 9.98935 1.03363 14.93308 1.61451l14.77342 1.76915c4.91741.57884 9.8319 1.06213 14.7645 1.54461 4.9384.47007 9.87448.761 14.929 1.19173a70.35132 70.35132 0 01-15.02732 1.95195 109.64009 109.64009 0 01-15.12471-.71588 125.97346 125.97346 0 01-14.87588-2.65778A88.70733 88.70733 0 01307.96693 210.84843zM307.96693 232.20392c5.04345.42657 9.98935 1.03363 14.93308 1.6145l14.77342 1.76915c4.91741.57884 9.8319 1.06213 14.7645 1.54462 4.9384.47006 9.87448.761 14.929 1.19172a70.35132 70.35132 0 01-15.02732 1.95195A109.63852 109.63852 0 01337.2149 239.56a125.97753 125.97753 0 01-14.87588-2.65777A88.71026 88.71026 0 01307.96693 232.20392zM307.96693 253.5594c5.04345.42658 9.98935 1.03363 14.93308 1.6145l14.77342 1.76915c4.91741.57886 9.8319 1.06214 14.7645 1.54462 4.9384.47006 9.87448.761 14.929 1.19174a70.35258 70.35258 0 01-15.02732 1.95194 109.64009 109.64009 0 01-15.12471-.71588 125.98165 125.98165 0 01-14.87588-2.65778A88.70831 88.70831 0 01307.96693 253.5594zM307.96693 274.91489c5.04345.42657 9.98935 1.03363 14.93308 1.6145l14.77342 1.76913c4.91741.57886 9.8319 1.06214 14.7645 1.54462 4.9384.47009 9.87448.761 14.929 1.19174a70.35068 70.35068 0 01-15.02732 1.95194 109.64009 109.64009 0 01-15.12471-.71588 125.96937 125.96937 0 01-14.87588-2.65778A88.71018 88.71018 0 01307.96693 274.91489z"></path><path fill="#ee781d" d="M449.17833 192.35061l-23.29673 3.92888a2 2 0 01-2.34444-1.58228l-.77263-16.82828a2 2 0 011.58228-2.34444l23.59568-4.84936a2 2 0 012.34444 1.58228l.47368 17.74877A2 2 0 01449.17833 192.35061zM435.95292 233.81126l-23.29673 3.92888a2 2 0 01-2.34444-1.58229l-.77263-16.82828a2 2 0 011.58228-2.34443l23.59568-4.84937a2 2 0 012.34444 1.58228l.47368 17.74877A2 2 0 01435.95292 233.81126z"></path><path fill="#ce800d" d="M411.12141,216.98514a2,2,0,0,0-1.58228,2.34436l.77265,16.82837a2,2,0,0,0,2.34442,1.58227l9.16-1.5448L419.737,215.21451Z"></path><path fill="#ee781d" d="M445.07114,275.2719l-23.29673,3.92888A2,2,0,0,1,419.43,277.6185l-.77264-16.82828a2,2,0,0,1,1.58229-2.34444l23.59568-4.84937a2,2,0,0,1,2.34444,1.58229l.47368,17.74877A2,2,0,0,1,445.07114,275.2719Z"></path><path fill="#ce800d" d="M420.23963,258.44571a2.00008,2.00008,0,0,0-1.58227,2.34448l.77264,16.82837a1.98642,1.98642,0,0,0,.9953,1.35864,81.17976,81.17976,0,0,0,3.1004-21.20679Z"></path><circle cx="312.04" cy="385.483" r="12.96" fill="#b9d4db"></circle><circle cx="294.76" cy="354.523" r="6.72" fill="#b9d4db"></circle><circle cx="338.718" cy="361.243" r="9.6" fill="#b9d4db"></circle><circle cx="174.129" cy="310.876" r="15.42" fill="#b9d4db"></circle><circle cx="144.663" cy="299.893" r="8.032" fill="#b9d4db"></circle><circle cx="152.041" cy="272.59" r="4.633" fill="#b9d4db"></circle><circle cx="177.688" cy="275.868" r="11.107" fill="#b9d4db"></circle><circle cx="271.185" cy="137.219" r="15.42" fill="#b9d4db"></circle><circle cx="271.811" cy="105.78" r="8.032" fill="#b9d4db"></circle><circle cx="325.309" cy="110.473" r="6.952" fill="#b9d4db"></circle><circle cx="300.018" cy="103.718" r="4.633" fill="#b9d4db"></circle><circle cx="305.402" cy="129.007" r="11.107" fill="#b9d4db"></circle><rect width="18.18" height="18.18" x="232.239" y="299.464" fill="#dbe8ec" transform="rotate(29.699 241.329 308.554)"></rect><path fill="#3086a3" d="M314.01052,301.09323A62.818,62.818,0,1,0,226.027,288.751,62.81434,62.81434,0,0,0,314.01052,301.09323Zm-78.20446-19.70585a50.58059,50.58059,0,1,1,70.83194,9.93131A50.58657,50.58657,0,0,1,235.80606,281.38738Z"></path><circle cx="276.189" cy="250.935" r="50.58" fill="#fff" opacity=".76"></circle><path fill="none" stroke="#dbe8ec" stroke-miterlimit="10" stroke-width="10" d="M312.30119,253.1553a36.18,36.18,0,0,1-67.87805,15.09763"></path><rect width="33.12" height="78.675" x="200.798" y="311.244" fill="#3086a3" rx="2" transform="rotate(29.699 217.358 350.582)"></rect><path fill="#25788e" d="M213.24358,391.219l36.99731-64.866a1.99979,1.99979,0,0,0-.74642-2.7281l-6.2909-3.58808a2,2,0,0,1,.746,2.72791L206.95232,387.6306a1.99987,1.99987,0,0,1-2.7281.74641l6.29126,3.58835A1.99991,1.99991,0,0,0,213.24358,391.219Z"></path><path fill="#409cb5" d="M190.55778,378.27966,227.555,313.41378a1.9999,1.9999,0,0,1,2.72814-.74637l6.98771,3.98549-13.07115-7.45534a2,2,0,0,0-2.72814.74636l-36.9973,64.866a2.00024,2.00024,0,0,0,.74635,2.72822l6.0835,3.46973A1.99993,1.99993,0,0,1,190.55778,378.27966Z"></path><polygon fill="#409cb5" points="198.292 384.993 210.515 391.965 210.516 391.965 198.292 384.993"></polygon><path fill="#dbe8ec" d="M177.53026,378.72715H213.034a2,2,0,0,1,2,2V386.669a13.17486,13.17486,0,0,1-13.17486,13.17486h-13.154A13.17486,13.17486,0,0,1,175.53026,386.669v-5.94182a2,2,0,0,1,2-2Z" transform="rotate(29.699 195.282 389.286)"></path><path fill="#e8eeef" d="M185.40177,380.68282l2.94378-5.16128a2.00009,2.00009,0,0,1,2.72824-.74644l25.17612,14.35957a2.01862,2.01862,0,0,0-.3167-.22559l-30.84-17.59006a2.00017,2.00017,0,0,0-2.72824.74644l-2.94388,5.16135A13.175,13.175,0,0,0,184.338,395.1984l5.329,3.03939A13.16418,13.16418,0,0,1,185.40177,380.68282Z"></path><path fill="#bad5db" d="M213.73568,396.79866l2.94389-5.16136a2.00023,2.00023,0,0,0-.74636-2.72822l-6.31823-3.60364a1.99956,1.99956,0,0,1,.74129,2.72455l-2.94378,5.16128a13.175,13.175,0,0,1-17.97168,4.91687l-5.11342-2.9165.0106.00676,11.42621,6.517A13.17469,13.17469,0,0,0,213.73568,396.79866Z"></path></svg>