<svg xmlns="http://www.w3.org/2000/svg"  viewBox="0 0 100 100" width="512px" height="512px"><path fill="#c7ede6" d="M87.215,56.71C88.35,54.555,89,52.105,89,49.5c0-6.621-4.159-12.257-10.001-14.478 C78.999,35.015,79,35.008,79,35c0-11.598-9.402-21-21-21c-9.784,0-17.981,6.701-20.313,15.757C36.211,29.272,34.638,29,33,29 c-7.692,0-14.023,5.793-14.89,13.252C12.906,43.353,9,47.969,9,53.5C9,59.851,14.149,65,20.5,65c0.177,0,0.352-0.012,0.526-0.022 C21.022,65.153,21,65.324,21,65.5C21,76.822,30.178,86,41.5,86c6.437,0,12.175-2.972,15.934-7.614C59.612,80.611,62.64,82,66,82 c4.65,0,8.674-2.65,10.666-6.518C77.718,75.817,78.837,76,80,76c6.075,0,11-4.925,11-11C91,61.689,89.53,58.727,87.215,56.71z"/><path fill="#fdfcef" d="M80.875,32.5c0,0,3.64,0,6.125,0s4.5-2.015,4.5-4.5c0-2.333-1.782-4.229-4.055-4.455 C87.467,23.364,87.5,23.187,87.5,23c0-2.485-2.015-4.5-4.5-4.5c-1.438,0-2.703,0.686-3.527,1.736 C79.333,17.6,77.171,15.5,74.5,15.5c-2.761,0-5,2.239-5,5c0,0.446,0.077,0.87,0.187,1.282C69.045,21.005,68.086,20.5,67,20.5 c-1.781,0-3.234,1.335-3.455,3.055C63.364,23.533,63.187,23.5,63,23.5c-2.485,0-4.5,2.015-4.5,4.5s2.015,4.5,4.5,4.5s9.5,0,9.5,0 h5.375V33h3V32.5z"/><path fill="#472b29" d="M74.5,15c-3.033,0-5.5,2.467-5.5,5.5c0,0.016,0,0.031,0,0.047C68.398,20.192,67.71,20,67,20 c-1.831,0-3.411,1.261-3.858,3.005C63.095,23.002,63.048,23,63,23c-2.757,0-5,2.243-5,5s2.243,5,5,5h14.875 c0.276,0,0.5-0.224,0.5-0.5s-0.224-0.5-0.5-0.5H63c-2.206,0-4-1.794-4-4s1.794-4,4-4c0.117,0,0.23,0.017,0.343,0.032l0.141,0.019 c0.021,0.003,0.041,0.004,0.062,0.004c0.246,0,0.462-0.185,0.495-0.437C64.232,22.125,65.504,21,67,21 c0.885,0,1.723,0.401,2.301,1.1c0.098,0.118,0.241,0.182,0.386,0.182c0.078,0,0.156-0.018,0.228-0.056 c0.209-0.107,0.314-0.346,0.254-0.573C70.054,21.218,70,20.852,70,20.5c0-2.481,2.019-4.5,4.5-4.5c2.381,0,4.347,1.872,4.474,4.263 c0.011,0.208,0.15,0.387,0.349,0.45c0.05,0.016,0.101,0.024,0.152,0.024c0.15,0,0.296-0.069,0.392-0.192 C80.638,19.563,81.779,19,83,19c2.206,0,4,1.794,4,4c0,0.117-0.017,0.23-0.032,0.343l-0.019,0.141 c-0.016,0.134,0.022,0.268,0.106,0.373s0.207,0.172,0.34,0.185C89.451,24.247,91,25.949,91,28c0,2.206-1.794,4-4,4h-6.125 c-0.276,0-0.5,0.224-0.5,0.5s0.224,0.5,0.5,0.5H87c2.757,0,5-2.243,5-5c0-2.397-1.689-4.413-4.003-4.877 C87.999,23.082,88,23.041,88,23c0-2.757-2.243-5-5-5c-1.176,0-2.293,0.416-3.183,1.164C79.219,16.76,77.055,15,74.5,15L74.5,15z"/><path fill="#472b29" d="M73,22c-1.403,0-2.609,0.999-2.913,2.341C69.72,24.119,69.301,24,68.875,24 c-1.202,0-2.198,0.897-2.353,2.068C66.319,26.022,66.126,26,65.938,26c-1.529,0-2.811,1.2-2.918,2.732 C63.01,28.87,63.114,28.99,63.251,29c0.006,0,0.012,0,0.018,0c0.13,0,0.24-0.101,0.249-0.232c0.089-1.271,1.151-2.268,2.419-2.268 c0.229,0,0.47,0.042,0.738,0.127c0.022,0.007,0.045,0.01,0.067,0.01c0.055,0,0.11-0.02,0.156-0.054 C66.962,26.537,67,26.455,67,26.375c0-1.034,0.841-1.875,1.875-1.875c0.447,0,0.885,0.168,1.231,0.473 c0.047,0.041,0.106,0.063,0.165,0.063c0.032,0,0.063-0.006,0.093-0.019c0.088-0.035,0.148-0.117,0.155-0.212 C70.623,23.512,71.712,22.5,73,22.5c0.208,0,0.425,0.034,0.682,0.107c0.023,0.007,0.047,0.01,0.07,0.01 c0.109,0,0.207-0.073,0.239-0.182c0.038-0.133-0.039-0.271-0.172-0.309C73.517,22.04,73.256,22,73,22L73,22z"/><path fill="#472b29" d="M86.883,23.5c-1.326,0-2.508,0.897-2.874,2.182c-0.038,0.133,0.039,0.271,0.172,0.309 C84.205,25.997,84.228,26,84.25,26c0.109,0,0.209-0.072,0.24-0.182C84.795,24.748,85.779,24,86.883,24 c0.117,0,0.23,0.014,0.342,0.029c0.012,0.002,0.023,0.003,0.035,0.003c0.121,0,0.229-0.092,0.246-0.217 c0.019-0.137-0.077-0.263-0.214-0.281C87.158,23.516,87.022,23.5,86.883,23.5L86.883,23.5z"/><path fill="#fff" d="M15.405,51H5.5C5.224,51,5,50.776,5,50.5S5.224,50,5.5,50h9.905c0.276,0,0.5,0.224,0.5,0.5 S15.682,51,15.405,51z"/><path fill="#fff" d="M18.5,51h-1c-0.276,0-0.5-0.224-0.5-0.5s0.224-0.5,0.5-0.5h1c0.276,0,0.5,0.224,0.5,0.5 S18.777,51,18.5,51z"/><path fill="#fff" d="M23.491,53H14.5c-0.276,0-0.5-0.224-0.5-0.5s0.224-0.5,0.5-0.5h8.991c0.276,0,0.5,0.224,0.5,0.5 S23.767,53,23.491,53z"/><path fill="#ee3e54" d="M36.546,29h28.409c3.753,0,6.796,3.043,6.796,6.796v28.409c0,3.753-3.043,6.796-6.796,6.796H36.546 c-3.753,0-6.796-3.043-6.796-6.796V35.796C29.75,32.043,32.793,29,36.546,29z"/><path fill="#fff" d="M12.5,53h-1c-0.276,0-0.5-0.224-0.5-0.5s0.224-0.5,0.5-0.5h1c0.276,0,0.5,0.224,0.5,0.5 S12.777,53,12.5,53z"/><path fill="#fff" d="M9.5,53h-2C7.224,53,7,52.776,7,52.5S7.224,52,7.5,52h2c0.276,0,0.5,0.224,0.5,0.5S9.777,53,9.5,53z"/><path fill="#fff" d="M15.5,55h-2c-0.276,0-0.5-0.224-0.5-0.5s0.224-0.5,0.5-0.5h2c0.276,0,0.5,0.224,0.5,0.5 S15.776,55,15.5,55z"/><path fill="#fff" d="M18.5,46c-0.177,0-0.823,0-1,0c-0.276,0-0.5,0.224-0.5,0.5s0.224,0.5,0.5,0.5c0.177,0,0.823,0,1,0 c0.276,0,0.5-0.224,0.5-0.5S18.776,46,18.5,46z"/><path fill="#fff" d="M18.5,48c-0.177,0-4.823,0-5,0c-0.276,0-0.5,0.224-0.5,0.5s0.224,0.5,0.5,0.5c0.177,0,4.823,0,5,0 c0.276,0,0.5-0.224,0.5-0.5S18.776,48,18.5,48z"/><path fill="#fff" d="M23.5,50c-0.177,0-2.823,0-3,0c-0.276,0-0.5,0.224-0.5,0.5s0.224,0.5,0.5,0.5c0.177,0,2.823,0,3,0 c0.276,0,0.5-0.224,0.5-0.5S23.776,50,23.5,50z"/><path fill="#fff" d="M87.5,65h-10c-0.276,0-0.5-0.224-0.5-0.5s0.224-0.5,0.5-0.5h10c0.276,0,0.5,0.224,0.5,0.5 S87.776,65,87.5,65z"/><path fill="#fff" d="M91.5,65h-2c-0.276,0-0.5-0.224-0.5-0.5s0.224-0.5,0.5-0.5h2c0.276,0,0.5,0.224,0.5,0.5 S91.776,65,91.5,65z"/><path fill="#fff" d="M96.5,67h-10c-0.276,0-0.5-0.224-0.5-0.5s0.224-0.5,0.5-0.5h10c0.276,0,0.5,0.224,0.5,0.5 S96.777,67,96.5,67z"/><path fill="#fff" d="M84.5,67h-1c-0.276,0-0.5-0.224-0.5-0.5s0.224-0.5,0.5-0.5h1c0.276,0,0.5,0.224,0.5,0.5 S84.776,67,84.5,67z"/><path fill="#fff" d="M81.375,67H79.5c-0.276,0-0.5-0.224-0.5-0.5s0.224-0.5,0.5-0.5h1.875c0.276,0,0.5,0.224,0.5,0.5 S81.651,67,81.375,67z"/><path fill="#fff" d="M90.5,63h-5c-0.276,0-0.5-0.224-0.5-0.5s0.224-0.5,0.5-0.5h5c0.276,0,0.5,0.224,0.5,0.5 S90.777,63,90.5,63z"/><path fill="#fff" d="M87.5,69h-2c-0.276,0-0.5-0.224-0.5-0.5s0.224-0.5,0.5-0.5h2c0.276,0,0.5,0.224,0.5,0.5 S87.776,69,87.5,69z"/><path fill="#472b29" d="M65,29.4c3.639,0,6.6,2.961,6.6,6.6v28c0,3.639-2.961,6.6-6.6,6.6H37c-3.639,0-6.6-2.961-6.6-6.6V36 c0-3.639,2.961-6.6,6.6-6.6H65 M65,28H37c-4.418,0-8,3.582-8,8v28c0,4.418,3.582,8,8,8h28c4.418,0,8-3.582,8-8V36 C73,31.582,69.418,28,65,28L65,28z"/><path fill="#472b29" d="M69.5,41c-0.276,0-0.5-0.224-0.5-0.5v-4c0-2.481-2.019-4.5-4.5-4.5h-11c-0.276,0-0.5-0.224-0.5-0.5 s0.224-0.5,0.5-0.5h11c3.032,0,5.5,2.467,5.5,5.5v4C70,40.776,69.776,41,69.5,41z"/><path fill="#472b29" d="M69.5,57c-0.276,0-0.5-0.224-0.5-0.5v-9.016c0-0.276,0.224-0.5,0.5-0.5s0.5,0.224,0.5,0.5V56.5 C70,56.776,69.776,57,69.5,57z"/><path fill="#472b29" d="M64.5,69h-27c-3.032,0-5.5-2.467-5.5-5.5v-27c0-3.033,2.468-5.5,5.5-5.5h7 c0.276,0,0.5,0.224,0.5,0.5S44.776,32,44.5,32h-7c-2.481,0-4.5,2.019-4.5,4.5v27c0,2.481,2.019,4.5,4.5,4.5h27 c2.481,0,4.5-2.019,4.5-4.5v-4c0-0.276,0.224-0.5,0.5-0.5s0.5,0.224,0.5,0.5v4C70,66.533,67.532,69,64.5,69z"/><path fill="#472b29" d="M50.5,32h-3c-0.276,0-0.5-0.224-0.5-0.5s0.224-0.5,0.5-0.5h3c0.276,0,0.5,0.224,0.5,0.5 S50.776,32,50.5,32z"/><path fill="#fdfcef" d="M59.29,37.645l-12.605,2.701c-0.692,0.148-1.186,0.759-1.186,1.467v14.285 c0,0.957-0.678,1.78-1.617,1.963c-0.976,0.19-2.035,0.397-2.053,0.401c-1.615,0.37-2.624,1.979-2.254,3.594 c0.363,1.582,1.914,2.574,3.495,2.267l1.192-0.223c1.88-0.365,3.237-2.012,3.237-3.926V46.979c0-0.471,0.329-0.879,0.79-0.978 l9.363-2.013c0.436-0.094,0.847,0.239,0.847,0.684v8.612c0,0.957-0.678,1.78-1.617,1.963c-0.976,0.19-2.035,0.397-2.053,0.401 c-1.615,0.37-2.624,1.979-2.254,3.594c0.363,1.582,1.914,2.574,3.495,2.267l1.192-0.223c1.88-0.365,3.237-2.012,3.237-3.926V38.622 C60.5,37.986,59.913,37.511,59.29,37.645z"/><path fill="#472b29" d="M42.484,64.755c-1.543,0-2.917-1.054-3.275-2.615c-0.201-0.879-0.048-1.783,0.431-2.547 c0.479-0.764,1.227-1.295,2.105-1.496c0.023-0.005,1.085-0.213,2.065-0.404c0.761-0.148,1.314-0.818,1.314-1.595V41.813 c0-0.879,0.624-1.65,1.482-1.833l12.605-2.701h-0.001c0.408-0.086,0.828,0.012,1.154,0.275c0.324,0.262,0.51,0.652,0.509,1.069 V57.36c0,2.09-1.489,3.896-3.541,4.294l-1.193,0.223c-1.796,0.35-3.521-0.771-3.93-2.551c-0.202-0.879-0.049-1.784,0.43-2.548 c0.479-0.764,1.227-1.295,2.105-1.495c0.022-0.007,1.137-0.224,2.065-0.404c0.761-0.147,1.313-0.818,1.313-1.595v-8.612 c0-0.099-0.044-0.19-0.121-0.252c-0.045-0.037-0.145-0.093-0.271-0.065l-9.364,2.013c-0.286,0.062-0.494,0.318-0.494,0.611v13.195 c0,2.091-1.489,3.896-3.541,4.294l-1.194,0.224C42.919,64.734,42.7,64.755,42.484,64.755z M59.501,37.998 c-0.044,0-0.088,0.004-0.132,0.014c0,0,0,0-0.001,0l-12.604,2.701c-0.516,0.11-0.89,0.573-0.89,1.1v14.285 c0,1.134-0.808,2.114-1.92,2.331c-0.962,0.188-2.004,0.392-2.048,0.4c-0.676,0.155-1.257,0.568-1.63,1.162s-0.491,1.298-0.334,1.98 c0.317,1.384,1.66,2.254,3.058,1.983l1.194-0.224c1.698-0.329,2.931-1.825,2.931-3.558V46.979c0-0.644,0.457-1.209,1.086-1.345 l9.363-2.013c0.324-0.066,0.647,0.011,0.901,0.215c0.254,0.205,0.399,0.51,0.399,0.836v8.612c0,1.135-0.808,2.114-1.921,2.331 c-0.947,0.184-1.974,0.385-2.042,0.399c-0.682,0.155-1.264,0.568-1.636,1.163c-0.372,0.594-0.491,1.297-0.335,1.98 c0.318,1.383,1.651,2.255,3.059,1.982l1.193-0.223c1.698-0.33,2.932-1.826,2.932-3.558V38.622c0-0.189-0.084-0.366-0.23-0.485 C59.78,38.045,59.643,37.998,59.501,37.998z M59.29,37.645h0.01H59.29z"/><path fill="#fdfcef" d="M32.5,75.5c0,0,1.567,0,3.5,0s3.5-1.567,3.5-3.5c0-1.781-1.335-3.234-3.055-3.455 C36.473,68.366,36.5,68.187,36.5,68c0-1.933-1.567-3.5-3.5-3.5c-1.032,0-1.95,0.455-2.59,1.165 c-0.384-1.808-1.987-3.165-3.91-3.165c-2.209,0-4,1.791-4,4c0,0.191,0.03,0.374,0.056,0.558C22.128,66.714,21.592,66.5,21,66.5 c-1.228,0-2.245,0.887-2.455,2.055C18.366,68.527,18.187,68.5,18,68.5c-1.933,0-3.5,1.567-3.5,3.5s1.567,3.5,3.5,3.5s7.5,0,7.5,0 V76h7V75.5z"/><path fill="#472b29" d="M34.25,71C34.112,71,34,70.888,34,70.75c0-1.223,0.995-2.218,2.218-2.218 c0.034,0.009,0.737-0.001,1.244,0.136c0.133,0.036,0.212,0.173,0.176,0.306c-0.036,0.134-0.173,0.213-0.306,0.176 c-0.444-0.12-1.1-0.12-1.113-0.118c-0.948,0-1.719,0.771-1.719,1.718C34.5,70.888,34.388,71,34.25,71z"/><circle cx="27.5" cy="75.5" r=".5" fill="#472b29"/><path fill="#472b29" d="M36,76h-3.5c-0.276,0-0.5-0.224-0.5-0.5s0.224-0.5,0.5-0.5H36c1.654,0,3-1.346,3-3 c0-1.496-1.125-2.768-2.618-2.959c-0.134-0.018-0.255-0.088-0.336-0.196s-0.115-0.244-0.094-0.377C35.975,68.314,36,68.16,36,68 c0-1.654-1.346-3-3-3c-0.85,0-1.638,0.355-2.219,1c-0.125,0.139-0.321,0.198-0.5,0.148c-0.182-0.049-0.321-0.195-0.36-0.379 C29.58,64.165,28.141,63,26.5,63c-1.93,0-3.5,1.57-3.5,3.5c0,0.143,0.021,0.28,0.041,0.418c0.029,0.203-0.063,0.438-0.242,0.54 s-0.396,0.118-0.556-0.01C21.878,67.155,21.449,67,21,67c-0.966,0-1.792,0.691-1.963,1.644c-0.048,0.267-0.296,0.446-0.569,0.405 C18.314,69.025,18.16,69,18,69c-1.654,0-3,1.346-3,3s1.346,3,3,3h7.5c0.276,0,0.5,0.224,0.5,0.5S25.776,76,25.5,76H18 c-2.206,0-4-1.794-4-4s1.794-4,4-4c0.059,0,0.116,0.002,0.174,0.006C18.588,66.82,19.711,66,21,66c0.349,0,0.689,0.061,1.011,0.18 C22.176,63.847,24.126,62,26.5,62c1.831,0,3.466,1.127,4.153,2.774C31.333,64.276,32.155,64,33,64c2.206,0,4,1.794,4,4 c0,0.048-0.001,0.095-0.004,0.142C38.739,68.59,40,70.169,40,72C40,74.206,38.206,76,36,76z"/><path fill="#472b29" d="M30.5,75c-0.159,0-0.841,0-1,0c-0.276,0-0.5,0.224-0.5,0.5s0.224,0.5,0.5,0.5c0.159,0,0.841,0,1,0 c0.276,0,0.5-0.224,0.5-0.5S30.776,75,30.5,75z"/></svg>